#!OML:ASF X:\für Bonn\!DataBase\2005_08_11_Bastian_Final\c3d\Bastian.ASF
:FULLY-SPECIFIED
:DEGREES
62
root 25.0274 17.3435 -2.4471 359.607 -76.9982 -12.0866
lowerback 20.8879 -0.785274 5.68287
upperback 14.7824 -1.40262 3.249
thorax 4.55324 -0.961526 0.483983
lowerneck 1.20998 -5.96535 -3.66511
upperneck 10.9009 -8.64196 5.71558
head 3.82548 -4.27849 2.26876
rclavicle 9.93923e-015 -3.18055e-015
rhumerus -5.08449 16.8787 -77.3843
rradius 28.3497
rwrist -1.88334
rhand -22.5706 -0.56016
rfingers 7.12502
rthumb 3.85777 -30.505
lclavicle 9.93923e-015 -3.18055e-015
lhumerus -12.4127 -10.355 90.2657
lradius 15.3288
lwrist 12.5195
lhand -11.5493 -5.57823
lfingers 7.12502
lthumb 14.4913 23.8957
rfemur -12.3307 -1.15059 24.5364
rtibia 31.8302
rfoot -2.29533 -6.12573
rtoes -5.91169
lfemur -3.63952 -0.275501 -14.1405
ltibia 59.3514
lfoot -5.74065 -7.38402
ltoes -21.6915
63
root 24.9724 17.3557 -2.46255 359.086 -76.7865 -11.5295
lowerback 21.3627 -0.754795 5.78341
upperback 14.9503 -1.34871 3.29734
thorax 4.5177 -0.940956 0.480604
lowerneck 1.21977 -6.07536 -3.59075
upperneck 10.5417 -8.76488 5.77139
head 3.70278 -4.33388 2.27221
rclavicle 3.97569e-016 3.18055e-015
rhumerus -4.29358 16.802 -76.9973
rradius 28.0595
rwrist -1.78231
rhand -22.6419 -0.598162
rfingers 7.12502
rthumb 3.78894 -30.5442
lclavicle 3.97569e-016 3.18055e-015
lhumerus -12.4672 -10.6502 90.2189
lradius 15.4703
lwrist 12.8268
lhand -11.6037 -5.64365
lfingers 7.12502
lthumb 14.4389 23.8341
rfemur -12.1635 -1.32945 24.4859
rtibia 31.8813
rfoot -2.45215 -6.19124
rtoes -5.35368
lfemur -4.23362 -0.155376 -14.2471
ltibia 58.6253
lfoot -6.32533 -7.916
ltoes -21.662
64
root 24.9206 17.3657 -2.47712 358.582 -76.559 -10.9638
lowerback 21.819 -0.735076 5.90029
upperback 15.1167 -1.30634 3.34426
thorax 4.49139 -0.924389 0.467855
lowerneck 1.29025 -6.18671 -3.56057
upperneck 10.1049 -8.89147 5.89741
head 3.54953 -4.39284 2.30985
rclavicle 1.98785e-015 -3.26007e-014
rhumerus -3.50925 16.7672 -76.6015
rradius 27.8055
rwrist -1.73103
rhand -22.7354 -0.604255
rfingers 7.12502
rthumb 3.69858 -30.5519
lclavicle 1.98785e-015 -3.26007e-014
lhumerus -12.5639 -11.0661 90.1884
lradius 15.7463
lwrist 13.2219
lhand -11.678 -5.69322
lfingers 7.12502
lthumb 14.3673 23.7896
rfemur -12.0408 -1.517 24.4303
rtibia 31.9223
rfoot -2.58752 -6.26374
rtoes -5.04357
lfemur -4.83886 -0.0328856 -14.3722
ltibia 57.7986
lfoot -6.92637 -8.559
ltoes -21.3896
65
root 24.8704 17.3722 -2.49127 358.455 -76.3431 -10.8448
lowerback 22.3651 -0.732202 6.10957
upperback 15.2808 -1.26621 3.42382
thorax 4.42334 -0.906546 0.440973
lowerneck 1.33579 -6.2908 -3.53767
upperneck 9.70202 -9.00743 5.99843
head 3.41215 -4.44756 2.33996
rclavicle -3.22031e-014 -1.19271e-014
rhumerus -2.73095 16.72 -76.1829
rradius 27.5389
rwrist -1.61758
rhand -22.7779 -0.630596
rfingers 7.12502
rthumb 3.65762 -30.579
lclavicle -3.22031e-014 -1.19271e-014
lhumerus -12.6848 -11.4023 90.1783
lradius 16.0327
lwrist 13.5866
lhand -11.7894 -5.78992
lfingers 7.12502
lthumb 14.2599 23.7005
rfemur -11.8519 -1.71231 24.4892
rtibia 31.945
rfoot -2.70809 -6.34484
rtoes -4.87527
lfemur -5.34452 0.0698551 -14.3859
ltibia 56.8794
lfoot -7.48544 -9.30157
ltoes -20.5958
66
root 24.8236 17.3791 -2.50447 358.434 -76.1391 -10.7735
lowerback 22.8507 -0.72452 6.35754
upperback 15.4515 -1.21647 3.49832
thorax 4.39583 -0.879179 0.383771
lowerneck 1.36169 -6.39841 -3.46996
upperneck 9.27548 -9.12604 6.09964
head 3.26868 -4.50236 2.36189
rclavicle -2.98177e-014 0
rhumerus -1.91827 16.7569 -75.7256
rradius 27.2766
rwrist -1.61481
rhand -22.7973 -0.65524
rfingers 7.12502
rthumb 3.63881 -30.6039
lclavicle -2.98177e-014 0
lhumerus -12.8028 -11.8767 90.151
lradius 16.4501
lwrist 14.0618
lhand -11.8403 -5.84758
lfingers 7.12502
lthumb 14.2109 23.6463
rfemur -11.7366 -1.83291 24.5558
rtibia 31.9539
rfoot -2.80426 -6.46117
rtoes -4.44003
lfemur -5.91656 0.221372 -14.3993
ltibia 55.8839
lfoot -7.97508 -10.0759
ltoes -20.6873
67
root 24.7784 17.3888 -2.51727 358.369 -75.9393 -10.6839
lowerback 23.3644 -0.725935 6.61955
upperback 15.6318 -1.17412 3.56182
thorax 4.36888 -0.854523 0.308586
lowerneck 1.39269 -6.5041 -3.42997
upperneck 8.8314 -9.24369 6.23931
head 3.12335 -4.55761 2.40231
rclavicle -3.97569e-015 1.66979e-014
rhumerus -1.09654 16.7411 -75.29
rradius 27.0166
rwrist -1.60118
rhand -22.8497 -0.641282
rfingers 7.12502
rthumb 3.58824 -30.5908
lclavicle -3.97569e-015 1.66979e-014
lhumerus -12.891 -12.2738 90.1082
lradius 16.8609
lwrist 14.4426
lhand -11.9349 -6.02715
lfingers 7.12502
lthumb 14.1197 23.4731
rfemur -11.5943 -1.90707 24.616
rtibia 31.9523
rfoot -2.88646 -6.61418
rtoes -4.01121
lfemur -6.48436 0.374003 -14.433
ltibia 54.8292
lfoot -8.38137 -10.8182
ltoes -22.103
68
root 24.735 17.3968 -2.52932 358.491 -75.7621 -10.7705
lowerback 23.86 -0.726926 6.90667
upperback 15.8221 -1.12966 3.65059
thorax 4.3669 -0.828572 0.245896
lowerneck 1.38064 -6.60824 -3.37038
upperneck 8.41251 -9.35483 6.31989
head 2.99013 -4.61005 2.41821
rclavicle -4.37326e-014 -1.59028e-015
rhumerus -0.234384 16.8365 -74.7927
rradius 26.7605
rwrist -1.65182
rhand -22.8624 -0.677214
rfingers 7.12502
rthumb 3.57598 -30.627
lclavicle -4.37326e-014 -1.59028e-015
lhumerus -12.9823 -12.688 90.0871
lradius 17.3475
lwrist 14.9007
lhand -12.0335 -6.19143
lfingers 7.12502
lthumb 14.0247 23.3154
rfemur -11.478 -1.99375 24.7196
rtibia 31.965
rfoot -2.97723 -6.76787
rtoes -3.711
lfemur -7.05113 0.566787 -14.4271
ltibia 53.7124
lfoot -8.59466 -11.4377
ltoes -23.1271
69
root 24.6949 17.4017 -2.54082 358.563 -75.5879 -10.7834
lowerback 24.3334 -0.720173 7.17752
upperback 16.0476 -1.08534 3.74531
thorax 4.42025 -0.80412 0.198204
lowerneck 1.23299 -6.7259 -3.27922
upperneck 8.01401 -9.47954 6.36278
head 2.88576 -4.66653 2.41086
rclavicle -2.54444e-014 -2.46493e-014
rhumerus 0.715554 16.9885 -74.2141
rradius 26.5375
rwrist -1.79008
rhand -22.8815 -0.741199
rfingers 7.12502
rthumb 3.55755 -30.6913
lclavicle -2.54444e-014 -2.46493e-014
lhumerus -12.9649 -13.0903 90.0554
lradius 17.8588
lwrist 15.3428
lhand -12.1178 -6.34816
lfingers 7.12502
lthumb 13.9435 23.1643
rfemur -11.4432 -2.03157 24.8045
rtibia 32.0442
rfoot -3.06974 -6.92762
rtoes -3.25379
lfemur -7.62364 0.769724 -14.4607
ltibia 52.5258
lfoot -8.61473 -11.8265
ltoes -23.8515
70
root 24.6565 17.4015 -2.55125 358.701 -75.4304 -10.8851
lowerback 24.829 -0.721254 7.49219
upperback 16.2689 -1.03973 3.84622
thorax 4.46324 -0.776471 0.133202
lowerneck 1.15157 -6.84027 -3.24567
upperneck 7.59116 -9.60204 6.43793
head 2.76708 -4.72514 2.42725
rclavicle -2.22639e-014 3.18055e-015
rhumerus 1.66193 17.1813 -73.6094
rradius 26.2926
rwrist -1.93699
rhand -22.7554 -0.859457
rfingers 7.12502
rthumb 3.67935 -30.8074
lclavicle -2.22639e-014 3.18055e-015
lhumerus -12.9505 -13.2919 90.0307
lradius 18.3834
lwrist 15.6009
lhand -12.1714 -6.49113
lfingers 7.12502
lthumb 13.8919 23.0249
rfemur -11.4398 -2.11069 24.9105
rtibia 32.2128
rfoot -3.20131 -7.05913
rtoes -3.00947
lfemur -8.12682 0.99523 -14.4757
ltibia 51.2795
lfoot -8.59548 -12.0872
ltoes -24.6038
71
root 24.6222 17.3975 -2.56063 358.591 -75.2532 -10.7049
lowerback 25.3393 -0.734436 7.76998
upperback 16.481 -1.00957 3.90805
thorax 4.48923 -0.756367 0.0496616
lowerneck 1.01697 -6.9656 -3.14591
upperneck 7.1805 -9.73798 6.48429
head 2.65758 -4.78867 2.42013
rclavicle -1.51076e-014 -5.00937e-014
rhumerus 2.63886 17.3539 -73.0102
rradius 26.017
rwrist -2.07758
rhand -22.5577 -0.985239
rfingers 7.12502
rthumb 3.87018 -30.9298
lclavicle -1.51076e-014 -5.00937e-014
lhumerus -12.9457 -13.6951 89.9995
lradius 18.9994
lwrist 16.0157
lhand -12.2861 -6.54854
lfingers 7.12502
lthumb 13.7813 22.975
rfemur -11.5353 -2.19218 24.9268
rtibia 32.5033
rfoot -3.37232 -7.18937
rtoes -2.47764
lfemur -8.60042 1.15654 -14.5977
ltibia 49.9824
lfoot -8.62703 -12.1515
ltoes -25.2664
72
root 24.5924 17.3882 -2.56836 358.485 -75.0508 -10.5271
lowerback 25.9049 -0.76672 8.06773
upperback 16.6657 -0.988287 3.99199
thorax 4.46149 -0.741786 -0.0176125
lowerneck 0.882887 -7.07564 -3.09136
upperneck 6.78172 -9.8552 6.53927
head 2.55473 -4.8445 2.42452
rclavicle 2.78299e-014 -4.77083e-015
rhumerus 3.52188 17.4889 -72.3963
rradius 25.8274
rwrist -2.13798
rhand -22.4823 -1.1087
rfingers 7.12502
rthumb 3.94306 -31.052
lclavicle 2.78299e-014 -4.77083e-015
lhumerus -12.9263 -13.8269 89.9995
lradius 19.5559
lwrist 16.1876
lhand -12.3263 -6.71611
lfingers 7.12502
lthumb 13.7426 22.8101
rfemur -11.695 -2.40532 24.9278
rtibia 32.8803
rfoot -3.58248 -7.22626
rtoes -2.34359
lfemur -9.02935 1.28718 -14.7321
ltibia 48.6675
lfoot -8.66187 -12.118
ltoes -25.4813
73
root 24.5667 17.3763 -2.57525 358.345 -74.8541 -10.32
lowerback 26.532 -0.81879 8.3986
upperback 16.8325 -0.973037 4.04808
thorax 4.38798 -0.726858 -0.131131
lowerneck 0.716879 -7.20082 -2.98927
upperneck 6.4245 -9.99391 6.56061
head 2.46794 -4.90994 2.40722
rclavicle -9.54166e-015 -5.00937e-014
rhumerus 4.3539 17.6028 -71.8088
rradius 25.6747
rwrist -2.14549
rhand -22.4238 -1.16971
rfingers 7.12502
rthumb 3.99952 -31.1119
lclavicle -9.54166e-015 -5.00937e-014
lhumerus -12.9402 -14.0574 90.0019
lradius 20.2072
lwrist 16.4504
lhand -12.3482 -6.80944
lfingers 7.12502
lthumb 13.7215 22.7182
rfemur -11.8962 -2.58197 24.9093
rtibia 33.3243
rfoot -3.81512 -7.29512
rtoes -1.72009
lfemur -9.42161 1.39045 -14.891
ltibia 47.3539
lfoot -8.66144 -12.0235
ltoes -25.2765
